<?xml version="1.0" encoding="utf-8"?>
<!-- Generator: Adobe Illustrator 23.0.1, SVG Export Plug-In . SVG Version: 6.00 Build 0)  -->
<svg version="1.1" id="图层_1" xmlns="http://www.w3.org/2000/svg" xmlns:xlink="http://www.w3.org/1999/xlink" x="0px" y="0px"
	 viewBox="0 0 12 12" style="enable-background:new 0 0 12 12;" xml:space="preserve">
<style type="text/css">
	.st0{fill:#FFAA10;}
</style>
<path class="st0" d="M7.2,6.2l2.7-2.7c0.3-0.3,0.3-0.8,0-1.1s-0.8-0.3-1.1,0L6.2,5.1L3.5,2.5c-0.3-0.3-0.8-0.3-1.1,0s-0.3,0.8,0,1.1
	l2.7,2.7L2.5,8.8c-0.3,0.3-0.3,0.8,0,1.1C2.6,10,2.8,10.1,3,10.1S3.4,10,3.5,9.9l2.7-2.7l2.7,2.7C9,10,9.2,10.1,9.4,10.1
	S9.7,10,9.9,9.9c0.3-0.3,0.3-0.8,0-1.1L7.2,6.2z"/>
</svg>
