<?xml version="1.0" encoding="utf-8"?>
<!-- Generator: Adobe Illustrator 23.0.1, SVG Export Plug-In . SVG Version: 6.00 Build 0)  -->
<svg version="1.1" id="图层_1" xmlns="http://www.w3.org/2000/svg" xmlns:xlink="http://www.w3.org/1999/xlink" x="0px" y="0px"
	 viewBox="0 0 16 16" style="enable-background:new 0 0 16 16;" xml:space="preserve">
<style type="text/css">
	.st0{fill-rule:evenodd;clip-rule:evenodd;fill:#FF3B30;}
</style>
<path id="Combined-Shape" class="st0" d="M8,0c4.4,0,8,3.6,8,8s-3.6,8-8,8s-8-3.6-8-8S3.6,0,8,0z M8,7C7.4,7,7,7.4,7,8l0,0v4
	c0,0.6,0.4,1,1,1s1-0.4,1-1l0,0V8C9,7.4,8.6,7,8,7z M8,4C7.4,4,7,4.4,7,5s0.4,1,1,1s1-0.4,1-1S8.6,4,8,4z"/>
</svg>
